<?xml version="1.0" encoding="UTF-8" standalone="no"?>
<!DOCTYPE svg PUBLIC "-//W3C//DTD SVG 1.1//EN" "http://www.w3.org/Graphics/SVG/1.1/DTD/svg11.dtd">
<svg width="100%" height="100%" viewBox="0 0 51 51" version="1.1" xmlns="http://www.w3.org/2000/svg" xmlns:xlink="http://www.w3.org/1999/xlink" xml:space="preserve" xmlns:serif="http://www.serif.com/" style="fill-rule:evenodd;clip-rule:evenodd;stroke-linejoin:round;stroke-miterlimit:2;">
    <g transform="matrix(1,0,0,1,0,-29.6977)">
        <rect x="14.68" y="31.238" width="2.922" height="17.382" style="fill:rgb(90,69,57);"/>
    </g>
    <g transform="matrix(1,0,0,1,0,-12.3155)">
        <rect x="14.68" y="29.779" width="20.64" height="2.917" style="fill:rgb(90,69,57);"/>
    </g>
    <g transform="matrix(1,0,0,1,0,-29.6977)">
        <rect x="26.492" y="31.238" width="2.922" height="17.382" style="fill:rgb(90,69,57);"/>
    </g>
    <g transform="matrix(1,0,0,1,0,-29.6977)">
        <rect x="20.586" y="31.238" width="2.922" height="17.382" style="fill:rgb(90,69,57);"/>
    </g>
    <g transform="matrix(1,0,0,1,0,17.2223)">
        <rect x="23.539" y="1.7" width="2.922" height="29.538" style="fill:rgb(90,69,57);"/>
    </g>
    <g transform="matrix(1,0,0,1,0,-29.6977)">
        <rect x="32.398" y="31.238" width="2.922" height="17.382" style="fill:rgb(90,69,57);"/>
    </g>
</svg>
